<?xml version="1.0" encoding="UTF-8"?>
<svg xmlns="http://www.w3.org/2000/svg" version="1.1" width="100" height="100" viewBox="0 0 100 100"><rect x="0" y="0" width="100" height="100" fill="#ffffff"/><g transform="scale(3.448)"><g transform="translate(0,0)"><path fill-rule="evenodd" d="M8 0L8 1L9 1L9 2L8 2L8 5L9 5L9 4L11 4L11 5L10 5L10 10L9 10L9 8L8 8L8 9L7 9L7 8L6 8L6 9L4 9L4 8L0 8L0 11L1 11L1 12L2 12L2 11L4 11L4 12L3 12L3 13L1 13L1 15L0 15L0 17L1 17L1 18L0 18L0 19L1 19L1 18L3 18L3 15L4 15L4 17L5 17L5 19L7 19L7 20L4 20L4 19L3 19L3 21L7 21L7 20L10 20L10 21L8 21L8 22L9 22L9 23L10 23L10 22L11 22L11 20L12 20L12 19L10 19L10 17L11 17L11 16L12 16L12 17L13 17L13 16L12 16L12 14L13 14L13 15L14 15L14 18L13 18L13 21L16 21L16 23L19 23L19 24L20 24L20 25L24 25L24 26L25 26L25 25L26 25L26 26L27 26L27 24L26 24L26 22L27 22L27 23L28 23L28 24L29 24L29 23L28 23L28 22L29 22L29 21L27 21L27 18L28 18L28 15L29 15L29 13L27 13L27 12L26 12L26 11L28 11L28 12L29 12L29 11L28 11L28 10L29 10L29 8L28 8L28 10L26 10L26 11L25 11L25 13L27 13L27 14L24 14L24 12L23 12L23 13L22 13L22 12L20 12L20 11L24 11L24 10L25 10L25 9L27 9L27 8L24 8L24 10L23 10L23 9L22 9L22 8L21 8L21 6L20 6L20 5L21 5L21 4L20 4L20 3L21 3L21 2L20 2L20 3L19 3L19 6L18 6L18 7L17 7L17 5L16 5L16 4L18 4L18 3L17 3L17 2L19 2L19 1L21 1L21 0L18 0L18 1L17 1L17 2L15 2L15 3L14 3L14 5L13 5L13 3L12 3L12 4L11 4L11 2L14 2L14 0L12 0L12 1L11 1L11 0L10 0L10 1L9 1L9 0ZM15 0L15 1L16 1L16 0ZM12 5L12 6L11 6L11 8L12 8L12 6L13 6L13 8L14 8L14 9L15 9L15 10L14 10L14 11L11 11L11 13L10 13L10 14L11 14L11 13L12 13L12 12L13 12L13 14L14 14L14 15L17 15L17 17L16 17L16 16L15 16L15 17L16 17L16 19L18 19L18 18L19 18L19 21L20 21L20 19L21 19L21 20L22 20L22 18L24 18L24 19L23 19L23 20L26 20L26 19L25 19L25 18L26 18L26 17L27 17L27 15L24 15L24 14L23 14L23 15L22 15L22 14L20 14L20 15L19 15L19 14L17 14L17 12L18 12L18 13L20 13L20 12L18 12L18 11L20 11L20 10L21 10L21 9L20 9L20 10L19 10L19 9L17 9L17 7L16 7L16 5L14 5L14 6L13 6L13 5ZM8 6L8 7L9 7L9 6ZM14 6L14 7L15 7L15 8L16 8L16 7L15 7L15 6ZM19 6L19 8L20 8L20 6ZM6 9L6 10L7 10L7 9ZM11 9L11 10L12 10L12 9ZM1 10L1 11L2 11L2 10ZM16 10L16 11L15 11L15 12L14 12L14 14L16 14L16 13L15 13L15 12L16 12L16 11L17 11L17 10ZM5 11L5 12L7 12L7 13L3 13L3 14L2 14L2 15L3 15L3 14L5 14L5 15L6 15L6 16L5 16L5 17L6 17L6 18L7 18L7 19L8 19L8 18L9 18L9 17L10 17L10 15L9 15L9 14L8 14L8 15L6 15L6 14L7 14L7 13L9 13L9 11L8 11L8 12L7 12L7 11ZM18 15L18 17L19 17L19 15ZM21 15L21 16L22 16L22 15ZM23 15L23 17L25 17L25 16L24 16L24 15ZM1 16L1 17L2 17L2 16ZM6 16L6 17L7 17L7 18L8 18L8 16ZM1 20L1 21L2 21L2 20ZM21 21L21 24L24 24L24 21ZM14 22L14 23L11 23L11 24L9 24L9 25L8 25L8 29L10 29L10 28L9 28L9 27L11 27L11 26L12 26L12 28L11 28L11 29L12 29L12 28L14 28L14 27L15 27L15 29L16 29L16 28L17 28L17 27L15 27L15 26L17 26L17 25L18 25L18 26L19 26L19 28L18 28L18 29L19 29L19 28L20 28L20 29L22 29L22 26L19 26L19 25L18 25L18 24L17 24L17 25L16 25L16 24L15 24L15 22ZM22 22L22 23L23 23L23 22ZM12 24L12 26L13 26L13 27L14 27L14 26L15 26L15 24ZM10 25L10 26L11 26L11 25ZM13 25L13 26L14 26L14 25ZM28 25L28 27L27 27L27 29L28 29L28 27L29 27L29 25ZM23 28L23 29L24 29L24 28ZM25 28L25 29L26 29L26 28ZM0 0L0 7L7 7L7 0ZM1 1L1 6L6 6L6 1ZM2 2L2 5L5 5L5 2ZM22 0L22 7L29 7L29 0ZM23 1L23 6L28 6L28 1ZM24 2L24 5L27 5L27 2ZM0 22L0 29L7 29L7 22ZM1 23L1 28L6 28L6 23ZM2 24L2 27L5 27L5 24Z" fill="#000000"/></g></g></svg>
