<?xml version="1.0" encoding="UTF-8"?>
<svg xmlns="http://www.w3.org/2000/svg" version="1.1" width="100" height="100" viewBox="0 0 100 100"><rect x="0" y="0" width="100" height="100" fill="#ffffff"/><g transform="scale(3.03)"><g transform="translate(0,0)"><path fill-rule="evenodd" d="M9 0L9 1L8 1L8 2L9 2L9 3L8 3L8 4L10 4L10 7L11 7L11 4L12 4L12 5L13 5L13 6L12 6L12 9L13 9L13 8L14 8L14 9L15 9L15 8L14 8L14 7L15 7L15 6L16 6L16 8L17 8L17 9L18 9L18 10L20 10L20 11L21 11L21 12L22 12L22 13L21 13L21 16L22 16L22 17L23 17L23 18L22 18L22 19L21 19L21 20L22 20L22 21L20 21L20 20L19 20L19 18L20 18L20 16L19 16L19 14L20 14L20 12L19 12L19 14L15 14L15 13L16 13L16 12L17 12L17 13L18 13L18 12L17 12L17 10L15 10L15 11L14 11L14 12L15 12L15 13L12 13L12 11L13 11L13 10L11 10L11 11L10 11L10 9L11 9L11 8L6 8L6 9L7 9L7 10L6 10L6 11L7 11L7 12L5 12L5 13L4 13L4 12L3 12L3 13L1 13L1 14L0 14L0 15L2 15L2 16L3 16L3 17L1 17L1 16L0 16L0 17L1 17L1 19L0 19L0 25L1 25L1 21L2 21L2 22L3 22L3 21L4 21L4 22L5 22L5 23L9 23L9 22L10 22L10 21L12 21L12 22L13 22L13 23L12 23L12 25L13 25L13 24L14 24L14 25L15 25L15 24L14 24L14 23L16 23L16 24L17 24L17 26L20 26L20 29L19 29L19 28L17 28L17 27L16 27L16 26L15 26L15 27L14 27L14 28L15 28L15 29L12 29L12 27L13 27L13 26L11 26L11 23L10 23L10 26L9 26L9 25L8 25L8 24L6 24L6 25L8 25L8 27L10 27L10 30L11 30L11 29L12 29L12 30L13 30L13 31L12 31L12 33L13 33L13 32L14 32L14 33L15 33L15 32L16 32L16 31L18 31L18 32L17 32L17 33L18 33L18 32L19 32L19 31L18 31L18 29L19 29L19 30L20 30L20 31L21 31L21 33L23 33L23 32L24 32L24 33L25 33L25 32L24 32L24 31L27 31L27 32L28 32L28 33L29 33L29 31L30 31L30 32L31 32L31 33L32 33L32 32L31 32L31 31L30 31L30 30L33 30L33 28L31 28L31 27L32 27L32 26L33 26L33 24L32 24L32 26L31 26L31 25L30 25L30 24L31 24L31 23L32 23L32 22L33 22L33 21L32 21L32 20L31 20L31 19L32 19L32 18L33 18L33 17L32 17L32 16L31 16L31 15L32 15L32 14L33 14L33 13L31 13L31 15L30 15L30 13L29 13L29 10L28 10L28 8L27 8L27 9L26 9L26 8L25 8L25 5L24 5L24 4L25 4L25 2L24 2L24 4L23 4L23 3L22 3L22 2L23 2L23 1L24 1L24 0L23 0L23 1L21 1L21 0L19 0L19 1L21 1L21 2L19 2L19 5L17 5L17 6L16 6L16 5L14 5L14 4L12 4L12 2L13 2L13 1L11 1L11 2L10 2L10 0ZM14 0L14 1L15 1L15 2L17 2L17 1L15 1L15 0ZM10 3L10 4L11 4L11 3ZM15 3L15 4L18 4L18 3ZM21 3L21 4L20 4L20 5L19 5L19 7L18 7L18 6L17 6L17 8L18 8L18 9L19 9L19 8L20 8L20 10L23 10L23 11L26 11L26 12L23 12L23 13L22 13L22 14L23 14L23 16L24 16L24 15L25 15L25 17L24 17L24 18L23 18L23 19L22 19L22 20L23 20L23 21L24 21L24 22L23 22L23 23L24 23L24 24L27 24L27 22L25 22L25 21L27 21L27 20L28 20L28 19L26 19L26 18L25 18L25 17L28 17L28 18L29 18L29 17L30 17L30 19L29 19L29 20L30 20L30 21L28 21L28 24L30 24L30 23L29 23L29 22L30 22L30 21L31 21L31 20L30 20L30 19L31 19L31 16L30 16L30 15L29 15L29 13L28 13L28 16L26 16L26 14L25 14L25 13L27 13L27 12L28 12L28 11L27 11L27 10L25 10L25 8L24 8L24 5L22 5L22 3ZM8 5L8 7L9 7L9 5ZM20 5L20 8L22 8L22 9L23 9L23 10L24 10L24 9L23 9L23 6L22 6L22 5ZM13 6L13 7L14 7L14 6ZM21 6L21 7L22 7L22 6ZM0 8L0 9L3 9L3 10L2 10L2 11L3 11L3 10L4 10L4 9L5 9L5 8ZM29 8L29 9L30 9L30 8ZM31 8L31 10L33 10L33 9L32 9L32 8ZM7 10L7 11L8 11L8 10ZM0 11L0 12L1 12L1 11ZM15 11L15 12L16 12L16 11ZM30 11L30 12L31 12L31 11ZM10 12L10 13L9 13L9 14L8 14L8 15L9 15L9 16L8 16L8 17L9 17L9 16L10 16L10 15L11 15L11 18L13 18L13 19L12 19L12 21L15 21L15 22L16 22L16 23L17 23L17 24L19 24L19 25L20 25L20 23L21 23L21 22L19 22L19 23L18 23L18 22L17 22L17 20L18 20L18 18L17 18L17 16L18 16L18 15L17 15L17 16L16 16L16 15L14 15L14 16L13 16L13 17L12 17L12 15L13 15L13 14L12 14L12 13L11 13L11 12ZM5 13L5 14L7 14L7 13ZM10 13L10 14L11 14L11 13ZM23 13L23 14L24 14L24 13ZM3 14L3 15L4 15L4 16L5 16L5 17L4 17L4 18L2 18L2 19L1 19L1 20L4 20L4 19L5 19L5 20L7 20L7 21L6 21L6 22L7 22L7 21L8 21L8 20L7 20L7 19L8 19L8 18L7 18L7 17L6 17L6 16L7 16L7 15L4 15L4 14ZM14 16L14 17L15 17L15 16ZM28 16L28 17L29 17L29 16ZM5 17L5 18L6 18L6 19L7 19L7 18L6 18L6 17ZM15 18L15 19L14 19L14 20L15 20L15 21L16 21L16 20L17 20L17 18ZM24 18L24 19L25 19L25 18ZM15 19L15 20L16 20L16 19ZM9 20L9 21L10 21L10 20ZM24 20L24 21L25 21L25 20ZM2 23L2 24L4 24L4 25L5 25L5 24L4 24L4 23ZM21 24L21 27L22 27L22 26L24 26L24 25L23 25L23 24ZM25 25L25 28L28 28L28 25ZM29 25L29 28L30 28L30 29L31 29L31 28L30 28L30 27L31 27L31 26L30 26L30 25ZM10 26L10 27L11 27L11 26ZM26 26L26 27L27 27L27 26ZM23 27L23 28L21 28L21 31L22 31L22 32L23 32L23 31L24 31L24 27ZM8 28L8 33L10 33L10 31L9 31L9 28ZM16 28L16 29L15 29L15 30L16 30L16 29L17 29L17 28ZM25 29L25 30L28 30L28 31L29 31L29 30L28 30L28 29ZM22 30L22 31L23 31L23 30ZM14 31L14 32L15 32L15 31ZM0 0L0 7L7 7L7 0ZM1 1L1 6L6 6L6 1ZM2 2L2 5L5 5L5 2ZM26 0L26 7L33 7L33 0ZM27 1L27 6L32 6L32 1ZM28 2L28 5L31 5L31 2ZM0 26L0 33L7 33L7 26ZM1 27L1 32L6 32L6 27ZM2 28L2 31L5 31L5 28Z" fill="#000000"/></g></g></svg>
