<?xml version="1.0" encoding="UTF-8"?>
<svg xmlns="http://www.w3.org/2000/svg" version="1.1" width="100" height="100" viewBox="0 0 100 100"><rect x="0" y="0" width="100" height="100" fill="#ffffff"/><g transform="scale(3.448)"><g transform="translate(0,0)"><path fill-rule="evenodd" d="M8 0L8 1L10 1L10 0ZM13 0L13 1L14 1L14 2L11 2L11 4L10 4L10 3L9 3L9 2L8 2L8 5L9 5L9 6L8 6L8 7L9 7L9 8L8 8L8 9L9 9L9 10L6 10L6 11L8 11L8 12L5 12L5 13L4 13L4 12L3 12L3 10L4 10L4 11L5 11L5 9L4 9L4 8L0 8L0 9L2 9L2 12L1 12L1 11L0 11L0 13L2 13L2 12L3 12L3 13L4 13L4 14L6 14L6 15L7 15L7 14L8 14L8 13L9 13L9 15L8 15L8 17L7 17L7 16L6 16L6 17L7 17L7 18L5 18L5 19L2 19L2 20L1 20L1 21L2 21L2 20L3 20L3 21L4 21L4 20L5 20L5 21L8 21L8 22L9 22L9 21L10 21L10 23L12 23L12 24L13 24L13 25L14 25L14 26L12 26L12 27L11 27L11 26L10 26L10 25L11 25L11 24L9 24L9 25L8 25L8 29L16 29L16 28L17 28L17 27L15 27L15 26L17 26L17 25L18 25L18 26L19 26L19 28L18 28L18 29L19 29L19 28L20 28L20 29L22 29L22 26L19 26L19 25L18 25L18 24L17 24L17 25L16 25L16 24L15 24L15 22L14 22L14 21L16 21L16 23L19 23L19 24L20 24L20 25L24 25L24 26L25 26L25 25L26 25L26 26L27 26L27 24L28 24L28 27L27 27L27 29L28 29L28 27L29 27L29 23L28 23L28 22L29 22L29 21L27 21L27 18L28 18L28 15L29 15L29 13L27 13L27 12L26 12L26 11L28 11L28 12L29 12L29 11L28 11L28 10L29 10L29 8L28 8L28 10L26 10L26 11L25 11L25 13L27 13L27 14L24 14L24 12L23 12L23 13L22 13L22 12L20 12L20 11L24 11L24 10L25 10L25 9L27 9L27 8L24 8L24 10L23 10L23 9L22 9L22 8L21 8L21 6L20 6L20 5L21 5L21 4L20 4L20 3L21 3L21 2L20 2L20 3L19 3L19 6L18 6L18 7L17 7L17 4L18 4L18 3L16 3L16 2L19 2L19 1L21 1L21 0L18 0L18 1L17 1L17 0L16 0L16 2L15 2L15 1L14 1L14 0ZM12 3L12 5L10 5L10 6L9 6L9 7L10 7L10 8L9 8L9 9L10 9L10 10L9 10L9 12L10 12L10 13L11 13L11 11L16 11L16 12L14 12L14 13L13 13L13 12L12 12L12 14L10 14L10 15L9 15L9 17L10 17L10 18L12 18L12 17L13 17L13 16L14 16L14 15L17 15L17 17L16 17L16 16L15 16L15 17L14 17L14 18L15 18L15 17L16 17L16 19L18 19L18 18L19 18L19 21L20 21L20 19L21 19L21 20L22 20L22 18L24 18L24 19L23 19L23 20L26 20L26 19L25 19L25 18L26 18L26 17L27 17L27 15L24 15L24 14L23 14L23 15L22 15L22 14L20 14L20 15L19 15L19 14L17 14L17 13L16 13L16 12L18 12L18 13L20 13L20 12L18 12L18 11L20 11L20 10L21 10L21 9L20 9L20 10L19 10L19 9L17 9L17 8L14 8L14 6L13 6L13 7L12 7L12 5L14 5L14 4L13 4L13 3ZM15 3L15 7L16 7L16 3ZM10 6L10 7L11 7L11 8L12 8L12 7L11 7L11 6ZM19 6L19 8L20 8L20 6ZM6 8L6 9L7 9L7 8ZM13 9L13 10L15 10L15 9ZM16 9L16 11L17 11L17 9ZM6 13L6 14L7 14L7 13ZM15 13L15 14L16 14L16 13ZM0 14L0 17L1 17L1 18L0 18L0 19L1 19L1 18L4 18L4 17L5 17L5 15L4 15L4 16L2 16L2 15L1 15L1 14ZM12 14L12 16L11 16L11 15L10 15L10 16L11 16L11 17L12 17L12 16L13 16L13 14ZM18 15L18 17L19 17L19 15ZM21 15L21 16L22 16L22 15ZM23 15L23 17L25 17L25 16L24 16L24 15ZM8 18L8 20L9 20L9 18ZM6 19L6 20L7 20L7 19ZM10 19L10 21L11 21L11 22L12 22L12 21L14 21L14 19L13 19L13 20L12 20L12 19ZM11 20L11 21L12 21L12 20ZM21 21L21 24L24 24L24 21ZM13 22L13 23L14 23L14 22ZM22 22L22 23L23 23L23 22ZM26 22L26 24L27 24L27 22ZM9 27L9 28L10 28L10 27ZM13 27L13 28L15 28L15 27ZM23 28L23 29L24 29L24 28ZM25 28L25 29L26 29L26 28ZM0 0L0 7L7 7L7 0ZM1 1L1 6L6 6L6 1ZM2 2L2 5L5 5L5 2ZM22 0L22 7L29 7L29 0ZM23 1L23 6L28 6L28 1ZM24 2L24 5L27 5L27 2ZM0 22L0 29L7 29L7 22ZM1 23L1 28L6 28L6 23ZM2 24L2 27L5 27L5 24Z" fill="#000000"/></g></g></svg>
